<svg width="16.000000" height="16.000000" viewBox="0 0 16 16" fill="none" xmlns="http://www.w3.org/2000/svg" xmlns:xlink="http://www.w3.org/1999/xlink">
	<desc>
			Created with Pixso.
	</desc>
	<defs/>
	<path id="Vector" d="M3.12 0.04L1.12 0.04C0.5 0.04 0 0.53 0 1.14L0 3.1C0 3.71 0.5 4.2 1.12 4.2L3.12 4.2C3.74 4.2 4.24 3.71 4.24 3.1L4.24 1.14C4.24 0.53 3.74 0.04 3.12 0.04ZM8.79 0.11L6.79 0.11C6.17 0.11 5.67 0.6 5.67 1.2L5.67 3.17C5.67 3.78 6.17 4.27 6.79 4.27L8.79 4.27C9.41 4.27 9.91 3.78 9.91 3.17L9.91 1.2C9.91 0.6 9.41 0.11 8.79 0.11ZM14.54 0.15L12.53 0.15C11.91 0.15 11.41 0.64 11.41 1.25L11.41 3.21C11.41 3.82 11.91 4.31 12.53 4.31L14.54 4.31C15.15 4.31 15.66 3.82 15.66 3.21L15.66 1.25C15.66 0.64 15.15 0.15 14.54 0.15ZM3.12 5.79L1.12 5.79C0.5 5.79 0 6.28 0 6.88L0 8.85C0 9.45 0.5 9.95 1.12 9.95L3.12 9.95C3.74 9.95 4.24 9.45 4.24 8.85L4.24 6.88C4.24 6.28 3.74 5.79 3.12 5.79ZM9.03 5.84L7.03 5.84C6.41 5.84 5.91 6.34 5.91 6.94L5.91 8.91C5.91 9.51 6.41 10 7.03 10L9.03 10C9.65 10 10.15 9.51 10.15 8.91L10.15 6.94C10.15 6.34 9.65 5.84 9.03 5.84ZM14.52 5.96L12.51 5.96C11.89 5.96 11.39 6.45 11.39 7.06L11.39 9.02C11.39 9.63 11.89 10.12 12.51 10.12L14.52 10.12C15.14 10.12 15.64 9.63 15.64 9.02L15.64 7.06C15.64 6.45 15.14 5.96 14.52 5.96ZM8.88 11.48L6.87 11.48C6.25 11.48 5.75 11.98 5.75 12.58L5.75 14.55C5.75 15.15 6.25 15.64 6.87 15.64L8.88 15.64C9.5 15.64 10 15.15 10 14.55L10 12.58C10 11.98 9.5 11.48 8.88 11.48ZM14.66 11.48L12.66 11.48C12.04 11.48 11.54 11.98 11.54 12.58L11.54 14.55C11.54 15.15 12.04 15.64 12.66 15.64L14.66 15.64C15.28 15.64 15.78 15.15 15.78 14.55L15.78 12.58C15.78 11.98 15.28 11.48 14.66 11.48ZM3.36 11.52L1.2 11.52C0.54 11.52 0 12.01 0 12.61L0 14.58C0 15.18 0.54 15.67 1.2 15.67L3.36 15.67C4.03 15.67 4.57 15.18 4.57 14.58L4.57 12.61C4.57 12.01 4.03 11.52 3.36 11.52Z" fill="#AE1332" fill-opacity="1.000000" fill-rule="evenodd"/>
</svg>
