<svg width="28.000000" height="28.000000" viewBox="0 0 28 28" fill="none" xmlns="http://www.w3.org/2000/svg" xmlns:xlink="http://www.w3.org/1999/xlink">
	<desc>
			Created with Pixso.
	</desc>
	<defs>
		<clipPath id="clip5498_33">
			<rect id="uil:cart" width="28.000000" height="28.000000" fill="white" fill-opacity="0"/>
		</clipPath>
	</defs>
	<rect id="uil:cart" width="28.000000" height="28.000000" fill="white" fill-opacity="0"/>
	<g clip-path="url(#clip5498_33)">
		<path id="Vector" d="M22.16 8.16L18.66 8.16L18.66 7C18.66 5.76 18.17 4.57 17.29 3.7C16.42 2.82 15.23 2.33 14 2.33C12.76 2.33 11.57 2.82 10.7 3.7C9.82 4.57 9.33 5.76 9.33 7L9.33 8.16L5.83 8.16C5.52 8.16 5.22 8.28 5 8.5C4.78 8.72 4.66 9.02 4.66 9.33L4.66 22.16C4.66 23.09 5.03 23.98 5.69 24.64C6.34 25.29 7.23 25.66 8.16 25.66L19.83 25.66C20.76 25.66 21.65 25.29 22.3 24.64C22.96 23.98 23.33 23.09 23.33 22.16L23.33 9.33C23.33 9.02 23.21 8.72 22.99 8.5C22.77 8.28 22.47 8.16 22.16 8.16ZM11.66 7C11.66 6.38 11.91 5.78 12.35 5.35C12.78 4.91 13.38 4.66 14 4.66C14.61 4.66 15.21 4.91 15.64 5.35C16.08 5.78 16.33 6.38 16.33 7L16.33 8.16L11.66 8.16L11.66 7ZM21 22.16C21 22.47 20.87 22.77 20.65 22.99C20.43 23.21 20.14 23.33 19.83 23.33L8.16 23.33C7.85 23.33 7.56 23.21 7.34 22.99C7.12 22.77 7 22.47 7 22.16L7 10.5L9.33 10.5L9.33 11.66C9.33 11.97 9.45 12.27 9.67 12.49C9.89 12.71 10.19 12.83 10.5 12.83C10.8 12.83 11.1 12.71 11.32 12.49C11.54 12.27 11.66 11.97 11.66 11.66L11.66 10.5L16.33 10.5L16.33 11.66C16.33 11.97 16.45 12.27 16.67 12.49C16.89 12.71 17.19 12.83 17.5 12.83C17.8 12.83 18.1 12.71 18.32 12.49C18.54 12.27 18.66 11.97 18.66 11.66L18.66 10.5L21 10.5L21 22.16Z" fill="white" fill-opacity="1.000000" fill-rule="nonzero"/>
	</g>
</svg>
