<svg width="28.000000" height="28.000000" viewBox="0 0 28 28" fill="none" xmlns="http://www.w3.org/2000/svg" xmlns:xlink="http://www.w3.org/1999/xlink">
	<desc>
			Created with Pixso.
	</desc>
	<defs>
		<clipPath id="clip3_6">
			<rect id="Frame 52" width="28.000000" height="28.000000" fill="white" fill-opacity="0"/>
		</clipPath>
	</defs>
	<g opacity="0.800000">
		<g clip-path="url(#clip3_6)">
			<path id="Vector" d="M17.08 4.06C17.29 4.06 17.5 4.06 17.91 4.06L17.91 7.21C17.7 7.21 17.29 7.21 16.87 7.21C16.44 7.21 16.02 7.21 15.81 7.42C15.6 7.63 15.6 7.84 15.6 8.33C15.6 8.75 15.6 9.03 15.6 9.45L17.91 9.45L17.91 12.11L15.6 12.11L15.6 23.66L12.04 23.66L12.04 12.04L10.14 12.04L10.14 9.38L12.04 9.38L12.04 8.47C12.04 6.93 12.25 5.81 12.66 5.32C13.29 4.41 14.56 3.99 16.44 3.99C16.65 4.06 16.87 4.06 17.08 4.06Z" fill="#AE1332" fill-opacity="1.000000" fill-rule="nonzero"/>
		</g>
	</g>
</svg>
