<svg width="23.000000" height="23.000000" viewBox="0 0 23 23" fill="none" xmlns="http://www.w3.org/2000/svg" xmlns:xlink="http://www.w3.org/1999/xlink">
	<desc>
			Created with Pixso.
	</desc>
	<defs/>
	<path id="Vector" d="M22.12 6.41C22.11 5.47 21.93 4.53 21.6 3.65C21.02 2.15 19.83 0.97 18.33 0.38C17.46 0.06 16.54 -0.12 15.61 -0.14C14.41 -0.19 14.03 -0.2 10.99 -0.2C7.96 -0.2 7.57 -0.2 6.38 -0.14C5.45 -0.12 4.53 0.06 3.66 0.38C2.16 0.97 0.97 2.15 0.39 3.65C0.06 4.52 -0.12 5.44 -0.14 6.37C-0.19 7.56 -0.21 7.94 -0.21 10.98C-0.21 14.01 -0.21 14.4 -0.14 15.58C-0.12 16.51 0.06 17.43 0.39 18.3C0.97 19.8 2.16 20.99 3.66 21.57C4.53 21.9 5.45 22.1 6.38 22.13C7.58 22.18 7.96 22.2 11 22.2C14.03 22.2 14.42 22.2 15.61 22.13C16.54 22.11 17.46 21.93 18.33 21.61C19.83 21.02 21.02 19.84 21.6 18.34C21.93 17.47 22.11 16.55 22.13 15.62C22.18 14.42 22.19 14.05 22.19 11.01C22.19 7.98 22.19 7.59 22.12 6.41ZM10.99 16.71C7.81 16.71 5.24 14.14 5.24 10.97C5.24 7.8 7.81 5.23 10.99 5.23C14.16 5.23 16.74 7.8 16.74 10.97C16.74 14.14 14.16 16.71 10.99 16.71ZM16.97 6.35C16.22 6.35 15.62 5.76 15.62 5.02C15.62 4.28 16.22 3.68 16.97 3.68C17.71 3.68 18.31 4.28 18.31 5.02C18.31 5.76 17.71 6.35 16.97 6.35Z" fill="#AE1332" fill-opacity="1.000000" fill-rule="nonzero"/>
</svg>
