<svg width="28.000000" height="28.000000" viewBox="0 0 28 28" fill="none" xmlns="http://www.w3.org/2000/svg" xmlns:xlink="http://www.w3.org/1999/xlink">
	<desc>
			Created with Pixso.
	</desc>
	<defs>
		<clipPath id="clip3_28">
			<rect id="Frame 60" width="28.000000" height="28.000000" fill="white" fill-opacity="0"/>
		</clipPath>
	</defs>
	<g opacity="0.800000">
		<g clip-path="url(#clip3_28)">
			<path id="Vector" d="M21.21 5.24C20.02 5.17 17.56 5.1 13.85 5.1L13.36 5.1C9.79 5.1 7.41 5.17 6.22 5.31C4.62 5.45 3.5 5.87 2.86 6.43C2.31 6.92 1.88 7.83 1.75 9.02C1.67 9.79 1.6 11.4 1.6 13.85L1.6 14.21C1.6 16.51 1.67 18.12 1.81 18.89C2.02 20.01 2.37 20.85 3.08 21.34C3.77 21.9 4.96 22.25 6.64 22.39C7.83 22.47 10.29 22.53 14 22.53L14.48 22.53C18.06 22.53 20.43 22.47 21.62 22.32C23.23 22.18 24.35 21.76 24.98 21.21C25.54 20.72 25.96 19.8 26.1 18.61C26.17 17.84 26.25 16.23 26.25 13.78L26.25 13.43C26.25 11.12 26.17 9.51 26.04 8.74C25.83 7.62 25.48 6.78 24.77 6.29C24.08 5.73 22.88 5.38 21.21 5.24ZM18.48 13.85L10.77 18.48L10.77 9.23L18.48 13.85Z" fill="#AE1332" fill-opacity="1.000000" fill-rule="evenodd"/>
		</g>
	</g>
</svg>
